# xmcd CD database file
#
# Track frame offsets:
#	150
#	15735
#	39842
#	57152
#	73675
#	92677
#	106295
#	122495
#	141055
#	158612
#	181477
#
# Disc length: 2624 seconds
#
# Revision: 1
# Processed by: cddbd v1.5.2PL0 Copyright (c) Steve Scherf et al.
# Submitted via: CDex 1.70beta2
#
DISCID=860a3e0b
DTITLE=Garth Hewitt - Walk the Talk
DYEAR=1993
DGENRE=Contemporary Christian
TTITLE0=Walk the Talk
TTITLE1=We Need Your Mother Love O God
TTITLE2=Rise Like the Sun
TTITLE3=Bread of Life
TTITLE4=For a Fairer World
TTITLE5=Jesus Taken Joyful
TTITLE6=We Hear Your Cry Lord
TTITLE7=The Living God
TTITLE8=The Father's Song
TTITLE9=Chain of Love
TTITLE10=Lament (Psalm of Desolation)
EXTD=YEAR: 1993
EXTT0=
EXTT1=
EXTT2=
EXTT3=
EXTT4=
EXTT5=
EXTT6=
EXTT7=
EXTT8=
EXTT9=
EXTT10=
PLAYORDER=
